packet|codec_type=video|stream_index=0|pts=0|pts_time=0.000000|dts=-1024|dts_time=-0.080000|duration=512|duration_time=0.040000|size=22583|pos=48|flags=K__|data_hash=CRC32:69e4d65d
packet|codec_type=video|stream_index=0|pts=12288|pts_time=0.960000|dts=9728|dts_time=0.760000|duration=512|duration_time=0.040000|size=26559|pos=22631|flags=K__|data_hash=CRC32:3d91ff30
packet|codec_type=video|stream_index=0|pts=24576|pts_time=1.920000|dts=22016|dts_time=1.720000|duration=512|duration_time=0.040000|size=25829|pos=49190|flags=K__|data_hash=CRC32:0ffa1941
packet|codec_type=video|stream_index=0|pts=36864|pts_time=2.880000|dts=34304|dts_time=2.680000|duration=512|duration_time=0.040000|size=24224|pos=75019|flags=K__|data_hash=CRC32:f4545b97
packet|codec_type=video|stream_index=0|pts=49152|pts_time=3.840000|dts=46592|dts_time=3.640000|duration=512|duration_time=0.040000|size=24046|pos=99243|flags=K__|data_hash=CRC32:ce41a6fe
packet|codec_type=video|stream_index=0|pts=61440|pts_time=4.800000|dts=58880|dts_time=4.600000|duration=512|duration_time=0.040000|size=22592|pos=123289|flags=K__|data_hash=CRC32:413e519a
stream|index=0|codec_name=h264|profile=77|codec_type=video|codec_tag_string=avc1|codec_tag=0x31637661|width=640|height=360|coded_width=640|coded_height=360|closed_captions=0|film_grain=0|has_b_frames=2|sample_aspect_ratio=1:1|display_aspect_ratio=16:9|pix_fmt=yuv420p|level=41|color_range=unknown|color_space=unknown|color_transfer=unknown|color_primaries=unknown|chroma_location=left|field_order=tt|refs=1|is_avc=true|nal_length_size=4|id=0x1|r_frame_rate=25/12|avg_frame_rate=75/59|time_base=1/12800|start_pts=0|start_time=0.000000|duration_ts=60416|duration=4.720000|bit_rate=247174|max_bit_rate=N/A|bits_per_raw_sample=8|nb_frames=6|nb_read_frames=N/A|nb_read_packets=6|extradata_size=54|extradata_hash=CRC32:148701ce|disposition:default=1|disposition:dub=0|disposition:original=0|disposition:comment=0|disposition:lyrics=0|disposition:karaoke=0|disposition:forced=0|disposition:hearing_impaired=0|disposition:visual_impaired=0|disposition:clean_effects=0|disposition:attached_pic=0|disposition:timed_thumbnails=0|disposition:captions=0|disposition:descriptions=0|disposition:metadata=0|disposition:dependent=0|disposition:still_image=0|tag:language=und|tag:handler_name=GPAC ISO Video Handler|tag:vendor_id=[0][0][0][0]
format|filename=cbs-h264-discard-nonintra.mp4|nb_streams=1|nb_programs=0|format_name=mov,mp4,m4a,3gp,3g2,mj2|start_time=0.000000|duration=4.720000|size=146725|bit_rate=248686|probe_score=100|tag:major_brand=isom|tag:minor_version=512|tag:compatible_brands=isomiso2avc1mp41
